<?xml version="1.0" encoding="utf-8"?>
<svg id="master-artboard" viewBox="0 0 1664.5184326171875 981.8468627929688" xmlns="http://www.w3.org/2000/svg" width="1664.5184326171875px" height="981.8468627929688px" version="1.1" style="shape-rendering:geometricPrecision; text-rendering:geometricPrecision; image-rendering:optimizeQuality; fill-rule:evenodd; clip-rule:evenodd"><rect id="ee-background" x="0" y="0" width="1664.5184326171875" height="981.8468627929688" style="fill: white; fill-opacity: 0; pointer-events: none;"/><defs><style id="ee-google-fonts">@import url(https://fonts.googleapis.com/css?family=Poppins:300,400,500,600,700);</style></defs><g transform="matrix(9.45945930480957, 0, 0, 9.45945930480957, 13.989393171344545, 82.97681305490187)"><path d="M 103.3660888671875 95.76000213623047 C 103.3660888671875 95.76000213623047 103.3660888671875 95.91666412353516 103.3660888671875 96.2300033569336 C 103.3660888671875 96.5433349609375 103.14942169189453 96.91666412353516 102.7160873413086 97.3499984741211 C 102.28275299072266 97.78333282470703 101.74942016601562 98 101.1160888671875 98 C 100.48941802978516 98 99.95941925048828 97.78333282470703 99.52608489990234 97.3499984741211 C 99.0927505493164 96.91666412353516 98.87608337402344 96.38666534423828 98.87608337402344 95.76000213623047 C 98.87608337402344 95.12666320800781 99.0927505493164 94.59333038330078 99.52608489990234 94.16000366210938 C 99.95941925048828 93.72666931152344 100.48941802978516 93.51000213623047 101.1160888671875 93.51000213623047 C 101.74942016601562 93.51000213623047 102.28275299072266 93.72666931152344 102.7160873413086 94.16000366210938 C 103.14942169189453 94.59333038330078 103.3660888671875 95.12666320800781 103.3660888671875 95.76000213623047 ZM 109.74408721923828 83.0999984741211 C 109.74408721923828 83.0999984741211 109.63075256347656 83.21333312988281 109.40408325195312 83.44000244140625 C 109.1707534790039 83.67333221435547 108.71742248535156 83.79000091552734 108.04408264160156 83.79000091552734 C 107.3707504272461 83.79000091552734 106.80408477783203 83.55999755859375 106.34408569335938 83.0999984741211 C 105.8774185180664 82.63333129882812 105.64408874511719 82.05999755859375 105.64408874511719 81.37999725341797 C 105.64408874511719 80.69999694824219 105.8774185180664 80.12666320800781 106.34408569335938 79.66000366210938 C 106.80408477783203 79.19999694824219 107.3707504272461 78.97000122070312 108.04408264160156 78.97000122070312 C 108.71742248535156 78.97000122070312 109.28408813476562 79.19999694824219 109.74408721923828 79.66000366210938 C 110.21075439453125 80.12666320800781 110.44408416748047 80.69999694824219 110.44408416748047 81.37999725341797 C 110.44408416748047 82.05999755859375 110.21075439453125 82.63333129882812 109.74408721923828 83.0999984741211 M 106.00408935546875 98 L 106.00408935546875 84.61000061035156 L 110.10408782958984 84.61000061035156 L 110.10408782958984 98 L 106.00408935546875 98 ZM 117.8080825805664 84.61000061035156 L 117.8080825805664 86.58000183105469 C 118.66141510009766 85.16666412353516 120.0147476196289 84.45999908447266 121.86808013916016 84.45999908447266 C 122.86141204833984 84.45999908447266 123.7447509765625 84.6866683959961 124.51808166503906 85.13999938964844 C 125.29808044433594 85.586669921875 125.90141296386719 86.22666931152344 126.32807922363281 87.05999755859375 C 126.82807922363281 86.27333068847656 127.47474670410156 85.6433334350586 128.26808166503906 85.16999816894531 C 129.05474853515625 84.69667053222656 129.93807983398438 84.45999908447266 130.91807556152344 84.45999908447266 C 132.55142211914062 84.45999908447266 133.84808349609375 84.96666717529297 134.80807495117188 85.97999572753906 C 135.76808166503906 86.98666381835938 136.24807739257812 88.38666534423828 136.24807739257812 90.18000030517578 L 136.24807739257812 98 L 132.16807556152344 98 L 132.16807556152344 90.7300033569336 C 132.16807556152344 89.86333465576172 131.93807983398438 89.1933364868164 131.47808837890625 88.72000122070312 C 131.02474975585938 88.25333404541016 130.39808654785156 88.02000427246094 129.59808349609375 88.02000427246094 C 128.79808044433594 88.02000427246094 128.16807556152344 88.25333404541016 127.70808410644531 88.72000122070312 C 127.25474548339844 89.1933364868164 127.02808380126953 89.86333465576172 127.02808380126953 90.7300033569336 L 127.02808380126953 98 L 122.94808197021484 98 L 122.94808197021484 90.7300033569336 C 122.94808197021484 89.86333465576172 122.7214126586914 89.1933364868164 122.26808166503906 88.72000122070312 C 121.8080825805664 88.25333404541016 121.17808532714844 88.02000427246094 120.37808227539062 88.02000427246094 C 119.57807922363281 88.02000427246094 118.951416015625 88.25333404541016 118.49807739257812 88.72000122070312 C 118.03807830810547 89.1933364868164 117.8080825805664 89.86333465576172 117.8080825805664 90.7300033569336 L 117.8080825805664 98 L 113.70808410644531 98 L 113.70808410644531 84.61000061035156 L 117.8080825805664 84.61000061035156 ZM 140.51406860351562 96.25 C 140.51406860351562 96.25 140.2174072265625 95.93000030517578 139.6240692138672 95.29000091552734 C 139.0373992919922 94.6500015258789 138.74407958984375 93.33000183105469 138.74407958984375 91.33000183105469 C 138.74407958984375 89.33000183105469 139.33407592773438 87.6866683959961 140.51406860351562 86.4000015258789 C 141.70074462890625 85.1066665649414 143.14407348632812 84.45999908447266 144.8440704345703 84.45999908447266 C 146.5507354736328 84.45999908447266 147.86073303222656 85.09333038330078 148.77407836914062 86.36000061035156 L 148.77407836914062 84.61000061035156 L 152.8740692138672 84.61000061035156 L 152.8740692138672 97.93000030517578 C 152.8740692138672 99.80332946777344 152.36407470703125 101.36333465576172 151.3440704345703 102.61000061035156 C 150.8307342529297 103.25 150.1307373046875 103.74666595458984 149.24407958984375 104.0999984741211 C 148.35073852539062 104.44667053222656 147.32073974609375 104.62000274658203 146.15406799316406 104.62000274658203 C 144.10740661621094 104.62000274658203 142.48406982421875 104.2066650390625 141.28407287597656 103.37999725341797 C 140.08407592773438 102.54666900634766 139.40406799316406 101.27333068847656 139.24407958984375 99.55999755859375 L 143.27407836914062 99.55999755859375 C 143.66073608398438 100.56666564941406 144.62074279785156 101.06999969482422 146.15406799316406 101.06999969482422 C 146.90740966796875 101.06999969482422 147.53073120117188 100.81999969482422 148.02407836914062 100.31999969482422 C 148.52407836914062 99.8133316040039 148.77407836914062 99.01667022705078 148.77407836914062 97.93000030517578 L 148.77407836914062 96.05999755859375 C 147.78073120117188 97.46666717529297 146.45074462890625 98.16999816894531 144.78407287597656 98.16999816894531 C 143.1240692138672 98.16999816894531 141.70074462890625 97.52999877929688 140.51406860351562 96.25 M 147.8840789794922 93.75 C 147.8840789794922 93.75 148.03073120117188 93.6066665649414 148.32406616210938 93.31999969482422 C 148.6240692138672 93.03333282470703 148.77407836914062 92.36000061035156 148.77407836914062 91.30000305175781 C 148.77407836914062 90.24666595458984 148.47740173339844 89.4366683959961 147.8840789794922 88.87000274658203 C 147.29074096679688 88.30332946777344 146.61073303222656 88.02000427246094 145.8440704345703 88.02000427246094 C 145.07740783691406 88.02000427246094 144.39739990234375 88.3066635131836 143.8040771484375 88.87999725341797 C 143.2107391357422 89.45333099365234 142.91407775878906 90.2699966430664 142.91407775878906 91.33000183105469 C 142.91407775878906 92.38333129882812 143.2107391357422 93.1933364868164 143.8040771484375 93.76000213623047 C 144.39739990234375 94.33333587646484 145.07740783691406 94.62000274658203 145.8440704345703 94.62000274658203 C 146.61073303222656 94.62000274658203 147.29074096679688 94.33000183105469 147.8840789794922 93.75 Z" transform="matrix(0.6345629096031189, 0, 0, 0.6345629096031189, 75.26964569091797, -0.017827706411480904)" style="fill: rgb(51, 51, 51); white-space: pre; color: rgb(51, 51, 51);"/><path fill="#000" fill-rule="nonzero" d="M 34.992 23.495 L 62.846999999999994 23.495 L 37.546 25.714000000000002 L 37.546 42.413000000000004 L 61.338 42.413000000000004 L 61.338 44.632000000000005 L 37.546 44.632000000000005 L 37.546 62.96600000000001 L 63.137 62.96600000000001 L 63.137 65.185 L 34.992 65.185 L 34.992 23.495000000000005 L 34.992 23.495 Z M 65.342 23.495 L 68.30199999999999 23.495 L 81.41699999999999 41.829 L 94.82199999999999 23.495 L 113.055 0.2070000000000002 L 83.1 43.756 L 98.536 65.185 L 95.46 65.185 L 81.417 45.683 L 67.316 65.185 L 64.298 65.185 L 79.85 43.756 L 65.343 23.495 L 65.342 23.495 Z M 99.639 25.714000000000002 L 99.639 23.495 L 131.381 23.495 L 131.381 25.714000000000002 L 116.758 25.714000000000002 L 116.758 65.184 L 114.204 65.184 L 114.204 25.714 L 99.64 25.714 L 99.639 25.714000000000002 Z M 0.1450000000000002 23.495 L 3.3369999999999997 23.495 L 47.348000000000006 89.498 L 29.16 65.185 L 2.814 26.648 L 2.698 65.185 L 0.1450000000000002 65.185 L 0.1450000000000002 23.495000000000005 L 0.1450000000000002 23.495 Z"/><path d="M 144.0406494140625 70.43065643310547 L 146.1082763671875 74.43667602539062" style="fill: rgb(0, 0, 0); fill-opacity: 1; stroke: rgb(0, 0, 0); stroke-opacity: 1; stroke-width: 0; paint-order: fill;"/></g><path d="M 1340.346923828125 846.3642578125 L 1545.524658203125 939.6268310546875" style="fill: rgb(0, 0, 0); fill-opacity: 1; stroke: rgb(0, 0, 0); stroke-opacity: 1; stroke-width: 0; paint-order: fill;"/></svg>